<svg width="30" height="20" viewBox="0 0 30 20" fill="none" xmlns="http://www.w3.org/2000/svg">
<path fill-rule="evenodd" clip-rule="evenodd" d="M14.9649 6.52078L22.9694 1.32958C23.6623 0.880457 24.7856 0.880457 25.4784 1.32958C26.1713 1.77893 26.1713 2.50734 25.4784 2.95667L16.6972 8.65151C16.2151 8.96429 15.5248 9.05945 14.916 8.93701C14.3357 9.03069 13.6962 8.93044 13.2425 8.63626L4.52009 2.97946C3.83183 2.53275 3.83183 1.80943 4.52009 1.36318C5.20821 0.916728 6.32399 0.916728 7.01215 1.36318L14.9649 6.52078ZM14.9469 16.5912L25.8622 9.45334C26.8069 8.83549 28.3387 8.83549 29.2834 9.45334C30.2282 10.071 30.2282 11.0727 29.2834 11.6905L17.3089 19.5211C16.6517 19.9509 15.7103 20.0817 14.8801 19.9135C14.0888 20.0423 13.2168 19.9045 12.5981 19.5001L0.703826 11.7215C-0.234609 11.1081 -0.234609 10.1132 0.703826 9.49934C1.64223 8.8857 3.16373 8.8857 4.10213 9.49934L14.9469 16.5912Z" fill="white"/>
</svg>
